HIERARCHY
ROOT hip
{
  OFFSET 0 0 0
  CHANNELS 6 Xposition Yposition Zposition Zrotation Yrotation Xrotation
  JOINT abdomen
  {
    OFFSET 0 20.6881 -0.73152
    CHANNELS 3 Zrotation Xrotation Yrotation
    JOINT chest
    {
      OFFSET 0 11.7043 -0.48768
      CHANNELS 3 Zrotation Xrotation Yrotation
      JOINT neck
      {
        OFFSET 0 22.1894 -2.19456
        CHANNELS 3 Zrotation Xrotation Yrotation
        JOINT head
        {
          OFFSET -0.24384 7.07133 1.2192
          CHANNELS 3 Zrotation Xrotation Yrotation
          JOINT leftEye
          {
            OFFSET 4.14528 8.04674 8.04672
            CHANNELS 3 Zrotation Xrotation Yrotation
            End Site
            {
              OFFSET 1 0 0
            }
          }
          JOINT rightEye
          {
            OFFSET -3.6576 8.04674 8.04672
            CHANNELS 3 Zrotation Xrotation Yrotation
            End Site
            {
              OFFSET 1 0 0
            }
          }
        }
      }
      JOINT rCollar
      {
        OFFSET -2.68224 19.2634 -4.8768
        CHANNELS 3 Zrotation Xrotation Yrotation
        JOINT rShldr
        {
          OFFSET -8.77824 -1.95073 1.46304
          CHANNELS 3 Zrotation Xrotation Yrotation
          JOINT rForeArm
          {
            OFFSET -28.1742 -1.7115 0.48768
            CHANNELS 3 Zrotation Xrotation Yrotation
            JOINT rHand
            {
              OFFSET -22.5879 0.773209 7.07136
              CHANNELS 3 Zrotation Xrotation Yrotation
              JOINT rThumb1
              {
                OFFSET -1.2192 -0.487915 3.41376
                CHANNELS 3 Zrotation Xrotation Yrotation
                JOINT rThumb2
                {
                  OFFSET -3.37035 -0.52449 3.41376
                  CHANNELS 3 Zrotation Xrotation Yrotation
                  End Site
                  {
                    OFFSET -1.78271 -1.18214 1.43049
                  }
                }
              }
              JOINT rIndex1
              {
                OFFSET -7.75947 0.938293 5.60832
                CHANNELS 3 Zrotation Xrotation Yrotation
                JOINT rIndex2
                {
                  OFFSET -2.54057 -0.884171 1.56538
                  CHANNELS 3 Zrotation Xrotation Yrotation
                  End Site
                  {
                    OFFSET -1.62519 -0.234802 1.16502
                  }
                }
              }
              JOINT rMid1
              {
                OFFSET -8.24714 1.18213 3.41376
                CHANNELS 3 Zrotation Xrotation Yrotation
                JOINT rMid2
                {
                  OFFSET -3.10165 -0.590103 1.0647
                  CHANNELS 3 Zrotation Xrotation Yrotation
                  End Site
                  {
                    OFFSET -2.48547 -0.328903 0.83742
                  }
                }
              }
              JOINT rRing1
              {
                OFFSET -8.82822 0.546677 1.51678
                CHANNELS 3 Zrotation Xrotation Yrotation
                JOINT rRing2
                {
                  OFFSET -2.60934 -0.819778 -0.0198488
                  CHANNELS 3 Zrotation Xrotation Yrotation
                  End Site
                  {
                    OFFSET -2.33842 -0.294052 0.168128
                  }
                }
              }
              JOINT rPinky1
              {
                OFFSET -8.27202 -0.0477905 -0.4584
                CHANNELS 3 Zrotation Xrotation Yrotation
                JOINT rPinky2
                {
                  OFFSET -1.82734 -0.647385 -0.700984
                  CHANNELS 3 Zrotation Xrotation Yrotation
                  End Site
                  {
                    OFFSET -1.69225 -0.51767 -0.607171
                  }
                }
              }
            }
          }
        }
      }
      JOINT lCollar
      {
        OFFSET 2.68224 19.2634 -4.8768
        CHANNELS 3 Zrotation Xrotation Yrotation
        JOINT lShldr
        {
          OFFSET 8.77824 -1.95073 1.46304
          CHANNELS 3 Zrotation Xrotation Yrotation
          JOINT lForeArm
          {
            OFFSET 28.1742 -1.7115 0.48768
            CHANNELS 3 Zrotation Xrotation Yrotation
            JOINT lHand
            {
              OFFSET 22.5879 0.773209 7.07136
              CHANNELS 3 Zrotation Xrotation Yrotation
              JOINT lThumb1
              {
                OFFSET 1.2192 -0.487915 3.41376
                CHANNELS 3 Zrotation Xrotation Yrotation
                JOINT lThumb2
                {
                  OFFSET 3.37035 -0.52449 3.41376
                  CHANNELS 3 Zrotation Xrotation Yrotation
                  End Site
                  {
                    OFFSET 1.78271 -1.18214 1.43049
                  }
                }
              }
              JOINT lIndex1
              {
                OFFSET 7.75947 0.938293 5.60832
                CHANNELS 3 Zrotation Xrotation Yrotation
                JOINT lIndex2
                {
                  OFFSET 2.54057 -0.884171 1.56538
                  CHANNELS 3 Zrotation Xrotation Yrotation
                  End Site
                  {
                    OFFSET 1.62519 -0.234802 1.16502
                  }
                }
              }
              JOINT lMid1
              {
                OFFSET 8.24714 1.18213 3.41376
                CHANNELS 3 Zrotation Xrotation Yrotation
                JOINT lMid2
                {
                  OFFSET 3.10165 -0.590103 1.0647
                  CHANNELS 3 Zrotation Xrotation Yrotation
                  End Site
                  {
                    OFFSET 2.48547 -0.328903 0.83742
                  }
                }
              }
              JOINT lRing1
              {
                OFFSET 8.82822 0.546677 1.51678
                CHANNELS 3 Zrotation Xrotation Yrotation
                JOINT lRing2
                {
                  OFFSET 2.60934 -0.819778 -0.0198488
                  CHANNELS 3 Zrotation Xrotation Yrotation
                  End Site
                  {
                    OFFSET 2.33842 -0.294052 0.168128
                  }
                }
              }
              JOINT lPinky1
              {
                OFFSET 8.27202 -0.0477905 -0.4584
                CHANNELS 3 Zrotation Xrotation Yrotation
                JOINT lPinky2
                {
                  OFFSET 1.82734 -0.647385 -0.700984
                  CHANNELS 3 Zrotation Xrotation Yrotation
                  End Site
                  {
                    OFFSET 1.69225 -0.51767 -0.607171
                  }
                }
              }
            }
          }
        }
      }
    }
  }
  JOINT rButtock
  {
    OFFSET -8.77824 4.35084 1.2192
    CHANNELS 3 Zrotation Xrotation Yrotation
    JOINT rThigh
    {
      OFFSET 0 -1.70687 -2.19456
      CHANNELS 3 Zrotation Xrotation Yrotation
      JOINT rShin
      {
        OFFSET 0 -36.8199 0.73152
        CHANNELS 3 Zrotation Xrotation Yrotation
        JOINT rFoot
        {
          OFFSET 0.73152 -45.1104 -5.12064
          CHANNELS 3 Zrotation Xrotation Yrotation
          End Site
          {
            OFFSET -1.1221 -3.69964 12.103
          }
        }
      }
    }
  }
  JOINT lButtock
  {
    OFFSET 8.77824 4.35084 1.2192
    CHANNELS 3 Zrotation Xrotation Yrotation
    JOINT lThigh
    {
      OFFSET 0 -1.70687 -2.19456
      CHANNELS 3 Zrotation Xrotation Yrotation
      JOINT lShin
      {
        OFFSET 0 -36.8199 0.73152
        CHANNELS 3 Zrotation Xrotation Yrotation
        JOINT lFoot
        {
          OFFSET -0.73152 -45.1104 -5.12064
          CHANNELS 3 Zrotation Xrotation Yrotation
          End Site
          {
            OFFSET 1.1221 -3.69964 12.103
          }
        }
      }
    }
  }
}
MOTION
Frames:	4
Frame Time:	0.03333
0.2555999904870987 57.38070011138916 1.2583999894559383 -12.91499979590201 -35.46050143472488 15.461400186414899 6.637539842491133 9.659500264815799 12.569900219218885 -0.9491870133667349 -10.86239988426624 3.471689959355924 -2.3465400907750302 12.884800114486799 3.8480201491321098 6.010729967264478 -31.034798399745082 9.544710398077273 -0.0 0.0 0.0 -0.0 0.0 0.0 1.5289000267137102e-13 4.841159863381835e-13 1.0991499968937522e-13 48.60459943576746 62.52390000194439 24.348299334396476 -28.39160056831477 -37.304498831372 79.17320327371333 -8.19051013568 -60.059000843702684 -14.122299764725232 1.777169914369236e-09 -2.741719875676865e-08 -3.179159958539528e-10 3.0590900933170954e-09 -4.6722399159573964e-08 -4.5777400505219563e-10 1.777169914369236e-09 -2.741719875676865e-08 -3.179169897772908e-10 7.730910121524428 5.474879855648998 0.41731399283890674 1.777169914369236e-09 -2.741719875676865e-08 -3.179129892358555e-10 2.90554006136521 0.9651829962377875 0.10290200252939893 1.777169914369236e-09 -2.741719875676865e-08 -3.179169897772908e-10 10.278599710243157 0.7318009818271524 0.025912300303053633 1.7771599751358564e-09 -2.741719875676865e-08 -3.179140080072769e-10 2.221669932038622 -0.7334870246959406 -0.20891999872313852 1.5283300252681875e-13 4.841139965502511e-13 1.0966099840665871e-13 -63.70119921861198 20.335899583830606 -31.199600619133737 28.04889924180397 -30.908200843478895 -68.69639659639827 0.2117139996609233 12.990900273053777 -1.8580599023745275 4.4677698876020103e-10 6.761800114352828e-10 -1.3579799636003778e-09 7.561419888087888e-10 1.2412399900409369e-09 -2.3558599115814676e-09 4.467750009135251e-10 6.761839871286346e-10 -1.3579700243669984e-09 -7.730910121524428 5.474879855648998 -0.41731399283890674 4.4677698876020103e-10 6.761819992819587e-10 -1.3579799636003778e-09 -2.90554006136521 0.9651829962377875 -0.10290200252939893 4.4677201914351124e-10 6.761810053586208e-10 -1.3579900022260913e-09 -10.278599710243157 0.7318009818271524 -0.025912300303053633 4.467800202263818e-10 6.761880125181534e-10 -1.3580000408518046e-09 -2.221669932038622 -0.7334870246959406 0.20891999872313852 -2.0321699793705798e-16 0.0 -3.882510030490358e-19 -19.757300598860486 -17.300000026070414 -30.494598738288776 -1.128099976693811 67.00280338036943 3.4559899157750036 -6.922940150733762 -13.80240017098487 -26.489700242978873 2.0321699793705798e-16 0.0 3.882510030490358e-19 66.6986004151154 -51.82210006317995 71.8502979173542 3.17401003820267 74.49759727738109 -3.0096500735627756 4.584779848296692 -2.4605799173653247 22.901100070033955
0.5308999912813306 57.644397020339966 2.6072999462485313 -11.468800300479252 -33.078199754116135 14.519699807430438 5.589690212955035 9.554389629904827 12.837699983744038 -0.8056120080622771 -10.75389976797965 3.528929932808393 -2.6974999697660267 12.95439974212923 2.918969920820748 6.060090036848868 -31.639198424304926 7.747639816122727 -0.0 0.0 0.0 -0.0 0.0 0.0 -2.7904400139723223e-13 -5.892199821282641e-13 9.45841993162331e-14 43.9244001372184 62.96769837345514 30.51409892836916 -28.236500632642123 -38.79259897603185 81.83059765333351 -7.231299712984566 -58.003100243150506 -13.002299858778528 -4.022800149647217e-09 1.4766399386286847e-08 -2.3807900930981167e-09 -6.8113502739123495e-09 2.666199990181525e-08 -4.263000012454029e-09 -4.022800149647217e-09 1.4766399386286847e-08 -2.380800032331496e-09 7.730910121524428 5.474879855648998 0.41731399283890674 -4.022800149647217e-09 1.4766300789091722e-08 -2.3807799550800695e-09 2.90554006136521 0.9651829962377875 0.10290200252939893 -4.022789812844503e-09 1.4766399386286847e-08 -2.3807900930981167e-09 10.278599710243157 0.7318009818271524 0.025912300303053633 -4.022800149647217e-09 1.4766399386286847e-08 -2.3807900930981167e-09 2.221669932038622 -0.7334870246959406 -0.20891999872313852 -2.790090102484692e-13 -5.892249808638017e-13 9.432760160292183e-14 -63.452300295067545 24.13549966816285 -31.55539883337804 27.930200799312903 -30.215001529519718 -67.60170168755282 0.1821819959175071 12.069099650216149 -1.7220200364676217 -3.2160900249961708e-09 1.512889992555197e-08 3.645729936651812e-10 -5.554309983960238e-09 2.613060077702303e-08 6.575910111186348e-10 -3.2160900249961708e-09 1.512889992555197e-08 3.645830074428111e-10 -7.730910121524428 5.474879855648998 -0.41731399283890674 -3.216080085762791e-09 1.512889992555197e-08 3.6457500635994053e-10 -2.90554006136521 0.9651829962377875 -0.10290200252939893 -3.2160900249961708e-09 1.512889992555197e-08 3.645700118951673e-10 -10.278599710243157 0.7318009818271524 -0.025912300303053633 -3.216080085762791e-09 1.512889992555197e-08 3.645599981175374e-10 -2.221669932038622 -0.7334870246959406 0.20891999872313852 -2.0321699793705798e-16 0.0 -3.882510030490358e-19 -18.782099849544405 -17.109700710510104 -26.801300303104025 -1.2533499579810947 68.142297499981 3.5074400232454175 -5.365739836014542 -10.455499902199193 -26.862000194257927 2.0321699793705798e-16 0.0 3.882510030490358e-19 62.821600627108566 -53.66510025220825 69.0576999431136 3.066929960933207 74.01249675195928 -2.856210087301851 4.489479926354797 -2.303810000440607 22.739600247109003
0.7710999809205532 57.91040062904358 4.041699972003698 -9.945200247608263 -30.642701145156746 13.467299991246643 4.605439889875511 9.669609798561064 13.017800119326226 -0.7934839933347144 -10.699499872561438 3.5574399961776724 -3.03886001787857 13.086200194995673 2.008330040530332 6.152230142525986 -32.168599556683446 5.98473981681211 -0.0 0.0 0.0 -0.0 0.0 0.0 -3.975000080594888e-13 -7.783209827609458e-13 -8.714110030005864e-14 35.8756983890862 63.361998364050805 40.70559835876902 -27.962900329964338 -40.7934994782925 85.21139785851724 -6.14340980698656 -55.296299690169036 -11.70400042586958 -6.4457801018102795e-09 2.4545199226617954e-08 -2.1761400851046927e-09 -1.0985899855813548e-08 4.361270087530409e-08 -4.018030112763692e-09 -6.4457801018102795e-09 2.4545199226617954e-08 -2.1761500243380725e-09 7.730910121524428 5.474879855648998 0.41731399283890674 -6.4457801018102795e-09 2.4545199226617954e-08 -2.1761299470866455e-09 2.90554006136521 0.9651829962377875 0.10290200252939893 -6.4457701625769e-09 2.4545199226617954e-08 -2.1761400851046927e-09 10.278599710243157 0.7318009818271524 0.025912300303053633 -6.4457801018102795e-09 2.4545199226617954e-08 -2.1761400851046927e-09 2.221669932038622 -0.7334870246959406 -0.20891999872313852 -3.9743099639022246e-13 -7.783230210802913e-13 -8.737050222281778e-14 -62.831299495729986 27.980300236874946 -32.33609970079425 27.77329940124666 -29.393500527096432 -66.27079834664082 0.15549000350728073 11.146400003729017 -1.586900004942846 -2.62991995952714e-09 1.1026700011267362e-08 1.143880030686657e-09 -4.5333101864302555e-09 1.8996099786364625e-08 2.0056999244804232e-09 -2.62991995952714e-09 1.102680019873983e-08 1.1438899699200366e-09 -7.730910121524428 5.474879855648998 -0.41731399283890674 -2.62991995952714e-09 1.102680019873983e-08 1.1438899699200366e-09 -2.90554006136521 0.9651829962377875 -0.10290200252939893 -2.629930097545187e-09 1.102680019873983e-08 1.1438899699200366e-09 -10.278599710243157 0.7318009818271524 -0.025912300303053633 -2.62991002029376e-09 1.102680019873983e-08 1.143880030686657e-09 -2.221669932038622 -0.7334870246959406 0.20891999872313852 -2.0321699793705798e-16 0.0 -3.882510030490358e-19 -17.829300413158673 -17.666900712810573 -23.181699609063713 -1.575280038895656 70.58909665692217 3.724020199184644 -3.497140097977038 -6.801519877858445 -26.69949974861957 2.0321699793705798e-16 0.0 3.882510030490358e-19 58.24040150548426 -55.286699859290586 65.49150108309904 2.9476699488263183 73.52159739593212 -2.7401600506614567 4.435509905967471 -2.347219908040858 22.53259941148072
0.9857999859377742 58.16890001296997 5.531099997460842 -8.43670003544488 -28.210600555309433 12.331600041719017 3.683229882574505 10.005000261339017 13.11089986658173 -0.9126360030753522 -10.699200198011603 3.5572500315413813 -3.3675899789987023 13.280799968412152 1.115410018824456 6.294759968804874 -32.62369847617598 4.25983018343875 -0.0 0.0 0.0 -0.0 0.0 0.0 -2.0247699815572602e-13 -8.318819851305289e-14 -4.352599952619332e-13 24.534000225098072 62.72230333695492 54.626599642049285 -27.333500105494956 -43.16529974305235 89.67280229228871 -5.0399099305273145 -51.928599787813376 -10.332799822628147 -5.4917699421199515e-09 1.919339913491985e-09 2.960319905834755e-10 -9.464540364197082e-09 4.129720061235305e-09 2.7713000380770473e-10 -5.491760002886572e-09 1.9193299742586053e-09 2.9602500827202633e-10 7.730910121524428 5.474879855648998 0.41731399283890674 -5.4917699421199515e-09 1.9193299742586053e-09 2.960319905834755e-10 2.90554006136521 0.9651829962377875 0.10290200252939893 -5.491760002886572e-09 1.9193299742586053e-09 2.960319905834755e-10 10.278599710243157 0.7318009818271524 0.025912300303053633 -5.4917699421199515e-09 1.919339913491985e-09 2.9603800381967013e-10 2.221669932038622 -0.7334870246959406 -0.20891999872313852 -2.0243300442985403e-13 -8.318170137013936e-14 -4.3543300974922896e-13 -61.74799734242011 31.83480138175575 -33.59830158393968 27.556000347897292 -28.412999550984424 -64.72419763173981 0.13160700643450146 10.22300026285196 -1.4525799593246083 2.2052799295269263e-09 -1.1630300112744815e-08 9.7995404361936e-10 3.819140089298399e-09 -2.016239964639325e-08 1.6884700090585788e-09 2.205269990293547e-09 -1.1630300112744815e-08 9.799600071593876e-10 -7.730910121524428 5.474879855648998 -0.41731399283890674 2.2052799295269263e-09 -1.1630300112744815e-08 9.799629889294015e-10 -2.90554006136521 0.9651829962377875 -0.10290200252939893 2.205260051060167e-09 -1.1630300112744815e-08 9.799649767760775e-10 -10.278599710243157 0.7318009818271524 -0.025912300303053633 2.2052799295269263e-09 -1.1630300112744815e-08 9.799610010827256e-10 -2.221669932038622 -0.7334870246959406 0.20891999872313852 -2.0321699793705798e-16 0.0 -3.882510030490358e-19 -16.73760054226427 -19.04020074544814 -19.59789935155802 -2.229000005678515 74.34229926622251 4.245090208323039 -1.426299952719338 -2.7858700244647094 -26.0482992678668 2.0321699793705798e-16 0.0 3.882510030490358e-19 52.91559968892066 -56.60760038816311 61.089901785700214 2.813080004014159 73.02500166213717 -2.6584400388934277 4.420600029896156 -2.5917300081567363 22.280200015986654
